<mxfile host="app.diagrams.net" modified="2023-09-08T00:46:07.725Z" agent="Mozilla/5.0 (Windows NT 10.0; Win64; x64) AppleWebKit/537.36 (KHTML, like Gecko) Chrome/116.0.0.0 Safari/537.36" etag="-W_4R5OBqa_rnXfXn8JW" version="21.7.2" type="github">
  <diagram name="Page-1" id="55a83fd1-7818-8e21-69c5-c3457e3827bb">
    <mxGraphModel dx="1444" dy="1679" grid="1" gridSize="10" guides="1" tooltips="1" connect="1" arrows="1" fold="1" page="1" pageScale="1" pageWidth="1100" pageHeight="850" background="none" math="0" shadow="0">
      <root>
        <mxCell id="0" />
        <mxCell id="1" parent="0" />
        <mxCell id="4s7BZbVLVcyS78RvxXGr-51" style="edgeStyle=orthogonalEdgeStyle;rounded=0;orthogonalLoop=1;jettySize=auto;html=1;exitX=1;exitY=0.5;exitDx=0;exitDy=0;strokeWidth=3;" edge="1" parent="1" source="69ecfefc5c41e42c-1" target="4s7BZbVLVcyS78RvxXGr-44">
          <mxGeometry relative="1" as="geometry" />
        </mxCell>
        <mxCell id="69ecfefc5c41e42c-1" value="" style="image;html=1;labelBackgroundColor=#ffffff;image=img/lib/clip_art/networking/Wireless_Router_128x128.png;rounded=1;shadow=0;comic=0;strokeWidth=2;fontSize=22" parent="1" vertex="1">
          <mxGeometry x="462.5" y="-600" width="80" height="80" as="geometry" />
        </mxCell>
        <mxCell id="4s7BZbVLVcyS78RvxXGr-34" style="edgeStyle=orthogonalEdgeStyle;rounded=0;orthogonalLoop=1;jettySize=auto;html=1;exitX=0.5;exitY=1;exitDx=0;exitDy=0;entryX=0.5;entryY=0.25;entryDx=0;entryDy=0;strokeWidth=3;entryPerimeter=0;" edge="1" parent="1" source="69ecfefc5c41e42c-2" target="4s7BZbVLVcyS78RvxXGr-11">
          <mxGeometry relative="1" as="geometry" />
        </mxCell>
        <mxCell id="69ecfefc5c41e42c-2" value="ISP" style="image;html=1;labelBackgroundColor=#ffffff;image=img/lib/clip_art/networking/Cloud_128x128.png;rounded=1;shadow=0;comic=0;strokeWidth=2;fontSize=22;labelPosition=center;verticalLabelPosition=top;align=center;verticalAlign=bottom;" parent="1" vertex="1">
          <mxGeometry x="107.5" y="-730" width="80" height="80" as="geometry" />
        </mxCell>
        <mxCell id="69ecfefc5c41e42c-6" value="Printer" style="image;html=1;labelBackgroundColor=#ffffff;image=img/lib/clip_art/computers/Printer_128x128.png;rounded=1;shadow=0;comic=0;strokeWidth=2;fontSize=22" parent="1" vertex="1">
          <mxGeometry x="490" y="-790" width="80" height="80" as="geometry" />
        </mxCell>
        <mxCell id="69ecfefc5c41e42c-8" value="Mobile" style="image;html=1;labelBackgroundColor=#ffffff;image=img/lib/clip_art/telecommunication/iPhone_128x128.png;rounded=1;shadow=0;comic=0;strokeWidth=2;fontSize=22" parent="1" vertex="1">
          <mxGeometry x="630" y="-720" width="80" height="80" as="geometry" />
        </mxCell>
        <mxCell id="69ecfefc5c41e42c-9" value="Laptop" style="image;html=1;labelBackgroundColor=#ffffff;image=img/lib/clip_art/computers/Netbook_128x128.png;rounded=1;shadow=0;comic=0;strokeColor=#000000;strokeWidth=2;fillColor=#FFFFFF;fontSize=22;fontColor=#000000;" parent="1" vertex="1">
          <mxGeometry x="290" y="-760" width="80" height="80" as="geometry" />
        </mxCell>
        <mxCell id="4s7BZbVLVcyS78RvxXGr-1" value="&lt;font style=&quot;font-size: 30px;&quot;&gt;Proposed Network for HFZA&lt;/font&gt;" style="rounded=1;whiteSpace=wrap;html=1;fillColor=#dae8fc;strokeColor=#6c8ebf;fontStyle=1" vertex="1" parent="1">
          <mxGeometry x="325" y="-140" width="450" height="90" as="geometry" />
        </mxCell>
        <mxCell id="4s7BZbVLVcyS78RvxXGr-50" style="edgeStyle=orthogonalEdgeStyle;rounded=0;orthogonalLoop=1;jettySize=auto;html=1;exitX=0.25;exitY=0;exitDx=0;exitDy=0;entryX=0;entryY=1;entryDx=0;entryDy=0;strokeWidth=3;strokeColor=#663300;" edge="1" parent="1" source="4s7BZbVLVcyS78RvxXGr-2" target="69ecfefc5c41e42c-1">
          <mxGeometry relative="1" as="geometry">
            <Array as="points">
              <mxPoint x="449.5" y="-440" />
              <mxPoint x="402.5" y="-440" />
              <mxPoint x="402.5" y="-520" />
            </Array>
          </mxGeometry>
        </mxCell>
        <mxCell id="4s7BZbVLVcyS78RvxXGr-57" style="edgeStyle=orthogonalEdgeStyle;rounded=0;orthogonalLoop=1;jettySize=auto;html=1;exitX=1;exitY=0.5;exitDx=0;exitDy=0;entryX=0.1;entryY=0.68;entryDx=0;entryDy=0;entryPerimeter=0;strokeWidth=3;strokeColor=#FF7003;" edge="1" parent="1" source="4s7BZbVLVcyS78RvxXGr-2" target="4s7BZbVLVcyS78RvxXGr-23">
          <mxGeometry relative="1" as="geometry" />
        </mxCell>
        <mxCell id="4s7BZbVLVcyS78RvxXGr-70" style="edgeStyle=orthogonalEdgeStyle;rounded=0;orthogonalLoop=1;jettySize=auto;html=1;exitX=0.75;exitY=0.31;exitDx=0;exitDy=0;exitPerimeter=0;entryX=0;entryY=0.5;entryDx=0;entryDy=0;strokeColor=#000000;strokeWidth=3;" edge="1" parent="1" source="4s7BZbVLVcyS78RvxXGr-2" target="4s7BZbVLVcyS78RvxXGr-69">
          <mxGeometry relative="1" as="geometry" />
        </mxCell>
        <object label="" id="4s7BZbVLVcyS78RvxXGr-2">
          <mxCell style="image;html=1;image=img/lib/clip_art/networking/power_distribution_unit_128x128.png;points=[[0,0,0,0,0],[0,0.25,0,0,0],[0,0.5,0,0,0],[0,1,0,0,0],[0.25,0,0,0,0],[0.25,0.66,0,0,0],[0.25,1,0,0,0],[0.5,0,0,0,0],[0.5,1,0,0,0],[0.75,0,0,0,0],[0.75,0.31,0,0,0],[0.75,1,0,0,0],[1,0,0,0,0],[1,0.5,0,0,0],[1,0.75,0,0,0],[1,1,0,0,0]];" vertex="1" parent="1">
            <mxGeometry x="412.5" y="-350" width="150" height="150" as="geometry" />
          </mxCell>
        </object>
        <mxCell id="4s7BZbVLVcyS78RvxXGr-18" style="edgeStyle=orthogonalEdgeStyle;rounded=0;orthogonalLoop=1;jettySize=auto;html=1;strokeColor=#663300;strokeWidth=3;exitX=0.25;exitY=1;exitDx=0;exitDy=0;entryX=0.25;entryY=0.66;entryDx=0;entryDy=0;entryPerimeter=0;" edge="1" parent="1" source="4s7BZbVLVcyS78RvxXGr-6" target="4s7BZbVLVcyS78RvxXGr-2">
          <mxGeometry relative="1" as="geometry">
            <mxPoint x="182.5" y="-200" as="sourcePoint" />
            <Array as="points">
              <mxPoint x="127" y="-210" />
              <mxPoint x="200" y="-210" />
              <mxPoint x="200" y="-251" />
            </Array>
          </mxGeometry>
        </mxCell>
        <mxCell id="4s7BZbVLVcyS78RvxXGr-6" value="" style="image;html=1;image=img/lib/clip_art/networking/Firewall_02_128x128.png" vertex="1" parent="1">
          <mxGeometry x="107.5" y="-320" width="80" height="80" as="geometry" />
        </mxCell>
        <mxCell id="4s7BZbVLVcyS78RvxXGr-15" style="edgeStyle=orthogonalEdgeStyle;rounded=0;orthogonalLoop=1;jettySize=auto;html=1;exitX=0.5;exitY=1;exitDx=0;exitDy=0;entryX=0.5;entryY=0;entryDx=0;entryDy=0;labelBorderColor=none;strokeWidth=3;strokeColor=#007FFF;" edge="1" parent="1" source="4s7BZbVLVcyS78RvxXGr-11" target="4s7BZbVLVcyS78RvxXGr-6">
          <mxGeometry relative="1" as="geometry">
            <Array as="points">
              <mxPoint x="147.5" y="-430" />
              <mxPoint x="147.5" y="-430" />
            </Array>
          </mxGeometry>
        </mxCell>
        <mxCell id="4s7BZbVLVcyS78RvxXGr-67" style="edgeStyle=orthogonalEdgeStyle;rounded=0;orthogonalLoop=1;jettySize=auto;html=1;exitX=1;exitY=0.5;exitDx=0;exitDy=0;exitPerimeter=0;entryX=0;entryY=0.5;entryDx=0;entryDy=0;entryPerimeter=0;strokeWidth=3;strokeColor=#FF7003;" edge="1" parent="1" source="4s7BZbVLVcyS78RvxXGr-11" target="4s7BZbVLVcyS78RvxXGr-2">
          <mxGeometry relative="1" as="geometry" />
        </mxCell>
        <mxCell id="4s7BZbVLVcyS78RvxXGr-11" value="" style="image;html=1;image=img/lib/clip_art/networking/Concentrator_128x128.png;points=[[0,0,0,0,0],[0,0.25,0,0,0],[0,0.5,0,0,0],[0,0.75,0,0,0],[0,1,0,0,0],[0.25,0,0,0,0],[0.25,1,0,0,0],[0.5,0.25,0,0,0],[0.5,1,0,0,0],[0.75,0,0,0,0],[0.75,1,0,0,0],[1,0,0,0,0],[1,0.25,0,0,0],[1,0.5,0,0,0],[1,0.75,0,0,0],[1,1,0,0,0]];" vertex="1" parent="1">
          <mxGeometry x="80" y="-555" width="135" height="130" as="geometry" />
        </mxCell>
        <mxCell id="4s7BZbVLVcyS78RvxXGr-19" value="" style="html=1;outlineConnect=0;fillColor=#CCCCCC;strokeColor=#6881B3;gradientColor=none;gradientDirection=north;strokeWidth=2;shape=mxgraph.networks.comm_link_edge;html=1;rounded=0;exitX=0.75;exitY=0;exitDx=0;exitDy=0;entryX=0;entryY=1;entryDx=0;entryDy=0;" edge="1" parent="1" source="69ecfefc5c41e42c-1" target="69ecfefc5c41e42c-8">
          <mxGeometry width="100" height="100" relative="1" as="geometry">
            <mxPoint x="492.5" y="-600" as="sourcePoint" />
            <mxPoint x="592.5" y="-700" as="targetPoint" />
          </mxGeometry>
        </mxCell>
        <mxCell id="4s7BZbVLVcyS78RvxXGr-21" value="" style="html=1;outlineConnect=0;fillColor=#CCCCCC;strokeColor=#6881B3;gradientColor=none;gradientDirection=north;strokeWidth=2;shape=mxgraph.networks.comm_link_edge;html=1;rounded=0;exitX=0;exitY=0.25;exitDx=0;exitDy=0;entryX=1;entryY=1;entryDx=0;entryDy=0;" edge="1" parent="1" source="69ecfefc5c41e42c-1" target="69ecfefc5c41e42c-9">
          <mxGeometry width="100" height="100" relative="1" as="geometry">
            <mxPoint x="512.5" y="-470" as="sourcePoint" />
            <mxPoint x="592.5" y="-550" as="targetPoint" />
          </mxGeometry>
        </mxCell>
        <mxCell id="4s7BZbVLVcyS78RvxXGr-22" value="" style="html=1;outlineConnect=0;fillColor=#CCCCCC;strokeColor=#6881B3;gradientColor=none;gradientDirection=north;strokeWidth=2;shape=mxgraph.networks.comm_link_edge;html=1;rounded=0;exitX=0.25;exitY=0;exitDx=0;exitDy=0;entryX=0;entryY=0.75;entryDx=0;entryDy=0;" edge="1" parent="1" source="69ecfefc5c41e42c-1" target="69ecfefc5c41e42c-6">
          <mxGeometry width="100" height="100" relative="1" as="geometry">
            <mxPoint x="422.5" y="-590" as="sourcePoint" />
            <mxPoint x="502.5" y="-670" as="targetPoint" />
          </mxGeometry>
        </mxCell>
        <mxCell id="4s7BZbVLVcyS78RvxXGr-23" value="" style="verticalAlign=top;verticalLabelPosition=bottom;labelPosition=center;align=center;html=1;outlineConnect=0;gradientDirection=north;strokeWidth=2;shape=mxgraph.networks.phone_1;fillColor=#f5f5f5;strokeColor=#666666;gradientColor=#b3b3b3;" vertex="1" parent="1">
          <mxGeometry x="692.5" y="-280" width="80" height="60" as="geometry" />
        </mxCell>
        <mxCell id="4s7BZbVLVcyS78RvxXGr-28" value="&lt;font style=&quot;font-size: 22px;&quot;&gt;Optical Network Terminal&lt;/font&gt;" style="text;html=1;align=center;verticalAlign=middle;resizable=0;points=[];autosize=1;strokeColor=none;fillColor=none;" vertex="1" parent="1">
          <mxGeometry x="12.5" y="-460" width="270" height="40" as="geometry" />
        </mxCell>
        <mxCell id="4s7BZbVLVcyS78RvxXGr-35" value="&lt;font style=&quot;font-size: 22px;&quot;&gt;Firewall&lt;/font&gt;" style="text;html=1;align=center;verticalAlign=middle;resizable=0;points=[];autosize=1;strokeColor=none;fillColor=none;" vertex="1" parent="1">
          <mxGeometry x="172.5" y="-320" width="100" height="40" as="geometry" />
        </mxCell>
        <mxCell id="4s7BZbVLVcyS78RvxXGr-36" value="&lt;font style=&quot;font-size: 22px;&quot;&gt;Patch Panel&lt;/font&gt;" style="text;html=1;align=center;verticalAlign=middle;resizable=0;points=[];autosize=1;strokeColor=none;fillColor=none;" vertex="1" parent="1">
          <mxGeometry x="412.5" y="-350" width="140" height="40" as="geometry" />
        </mxCell>
        <mxCell id="4s7BZbVLVcyS78RvxXGr-37" value="&lt;font style=&quot;font-size: 22px;&quot;&gt;Telephone&lt;/font&gt;" style="text;html=1;align=center;verticalAlign=middle;resizable=0;points=[];autosize=1;strokeColor=none;fillColor=none;" vertex="1" parent="1">
          <mxGeometry x="667.5" y="-210" width="130" height="40" as="geometry" />
        </mxCell>
        <mxCell id="4s7BZbVLVcyS78RvxXGr-38" value="&lt;font style=&quot;font-size: 22px;&quot;&gt;Router&lt;/font&gt;" style="text;html=1;align=center;verticalAlign=middle;resizable=0;points=[];autosize=1;strokeColor=none;fillColor=none;" vertex="1" parent="1">
          <mxGeometry x="452.5" y="-520" width="90" height="40" as="geometry" />
        </mxCell>
        <mxCell id="4s7BZbVLVcyS78RvxXGr-43" value="" style="image;html=1;image=img/lib/clip_art/computers/Monitor_Tower_Behind_128x128.png" vertex="1" parent="1">
          <mxGeometry x="847.5" y="-310" width="120" height="130" as="geometry" />
        </mxCell>
        <mxCell id="4s7BZbVLVcyS78RvxXGr-56" style="edgeStyle=orthogonalEdgeStyle;rounded=0;orthogonalLoop=1;jettySize=auto;html=1;exitX=1;exitY=0.5;exitDx=0;exitDy=0;entryX=1;entryY=0.5;entryDx=0;entryDy=0;strokeWidth=3;" edge="1" parent="1" source="4s7BZbVLVcyS78RvxXGr-44" target="4s7BZbVLVcyS78RvxXGr-53">
          <mxGeometry relative="1" as="geometry" />
        </mxCell>
        <mxCell id="4s7BZbVLVcyS78RvxXGr-44" value="" style="image;html=1;image=img/lib/clip_art/networking/Switch_128x128.png;points=[[0,0,0,0,0],[0,0.25,0,0,0],[0,0.5,0,0,0],[0,0.75,0,0,0],[0,1,0,0,0],[0.25,0,0,0,0],[0.25,1,0,0,0],[0.5,0,0,0,0],[0.5,1,0,0,0],[0.75,0,0,0,0],[0.75,0.25,0,0,0],[0.75,1,0,0,0],[1,0,0,0,0],[1,0.5,0,0,0],[1,0.75,0,0,0],[1,1,0,0,0]];" vertex="1" parent="1">
          <mxGeometry x="832.5" y="-625" width="150" height="130" as="geometry" />
        </mxCell>
        <mxCell id="4s7BZbVLVcyS78RvxXGr-54" style="edgeStyle=orthogonalEdgeStyle;rounded=0;orthogonalLoop=1;jettySize=auto;html=1;exitX=0.5;exitY=0.75;exitDx=0;exitDy=0;entryX=0;entryY=0.25;entryDx=0;entryDy=0;exitPerimeter=0;strokeWidth=3;" edge="1" parent="1" source="4s7BZbVLVcyS78RvxXGr-53" target="4s7BZbVLVcyS78RvxXGr-43">
          <mxGeometry relative="1" as="geometry" />
        </mxCell>
        <mxCell id="4s7BZbVLVcyS78RvxXGr-53" value="" style="image;html=1;image=img/lib/clip_art/networking/Switch_128x128.png;points=[[0,0,0,0,0],[0,0.25,0,0,0],[0,0.5,0,0,0],[0,0.75,0,0,0],[0,1,0,0,0],[0.25,0,0,0,0],[0.25,1,0,0,0],[0.5,0,0,0,0],[0.5,0.75,0,0,0],[0.75,0,0,0,0],[0.75,1,0,0,0],[1,0,0,0,0],[1,0.25,0,0,0],[1,0.5,0,0,0],[1,0.75,0,0,0],[1,1,0,0,0]];" vertex="1" parent="1">
          <mxGeometry x="842.5" y="-495" width="150" height="130" as="geometry" />
        </mxCell>
        <mxCell id="4s7BZbVLVcyS78RvxXGr-64" style="edgeStyle=orthogonalEdgeStyle;rounded=0;orthogonalLoop=1;jettySize=auto;html=1;exitX=1;exitY=1;exitDx=0;exitDy=0;entryX=0;entryY=0.5;entryDx=0;entryDy=0;strokeWidth=3;" edge="1" parent="1" source="4s7BZbVLVcyS78RvxXGr-58" target="4s7BZbVLVcyS78RvxXGr-61">
          <mxGeometry relative="1" as="geometry" />
        </mxCell>
        <mxCell id="4s7BZbVLVcyS78RvxXGr-58" value="" style="image;html=1;image=img/lib/clip_art/networking/Ip_Camera_128x128.png" vertex="1" parent="1">
          <mxGeometry x="750" y="-760" width="80" height="80" as="geometry" />
        </mxCell>
        <mxCell id="4s7BZbVLVcyS78RvxXGr-60" value="&lt;font style=&quot;font-size: 22px;&quot;&gt;Switch&lt;/font&gt;" style="text;html=1;align=center;verticalAlign=middle;resizable=0;points=[];autosize=1;strokeColor=none;fillColor=none;" vertex="1" parent="1">
          <mxGeometry x="880" y="-520" width="90" height="40" as="geometry" />
        </mxCell>
        <mxCell id="4s7BZbVLVcyS78RvxXGr-63" style="edgeStyle=orthogonalEdgeStyle;rounded=0;orthogonalLoop=1;jettySize=auto;html=1;exitX=1;exitY=0.5;exitDx=0;exitDy=0;entryX=0.75;entryY=0.25;entryDx=0;entryDy=0;entryPerimeter=0;strokeWidth=3;" edge="1" parent="1" source="4s7BZbVLVcyS78RvxXGr-61" target="4s7BZbVLVcyS78RvxXGr-44">
          <mxGeometry relative="1" as="geometry">
            <Array as="points">
              <mxPoint x="1030" y="-690" />
              <mxPoint x="1030" y="-592" />
            </Array>
          </mxGeometry>
        </mxCell>
        <mxCell id="4s7BZbVLVcyS78RvxXGr-61" value="" style="image;html=1;image=img/lib/clip_art/networking/Print_Server_128x128.png" vertex="1" parent="1">
          <mxGeometry x="930" y="-730" width="80" height="80" as="geometry" />
        </mxCell>
        <mxCell id="4s7BZbVLVcyS78RvxXGr-65" value="&lt;font style=&quot;font-size: 22px;&quot;&gt;NVR&lt;/font&gt;" style="text;html=1;align=center;verticalAlign=middle;resizable=0;points=[];autosize=1;strokeColor=none;fillColor=none;" vertex="1" parent="1">
          <mxGeometry x="982.5" y="-740" width="70" height="40" as="geometry" />
        </mxCell>
        <mxCell id="4s7BZbVLVcyS78RvxXGr-66" value="&lt;font style=&quot;font-size: 22px;&quot;&gt;Camera&lt;/font&gt;" style="text;html=1;align=center;verticalAlign=middle;resizable=0;points=[];autosize=1;strokeColor=none;fillColor=none;" vertex="1" parent="1">
          <mxGeometry x="730" y="-680" width="100" height="40" as="geometry" />
        </mxCell>
        <mxCell id="4s7BZbVLVcyS78RvxXGr-69" value="Tally" style="image;html=1;labelBackgroundColor=#ffffff;image=img/lib/clip_art/computers/Netbook_128x128.png;rounded=1;shadow=0;comic=0;strokeColor=#000000;strokeWidth=2;fillColor=#FFFFFF;fontSize=22;fontColor=#000000;" vertex="1" parent="1">
          <mxGeometry x="630" y="-470" width="80" height="80" as="geometry" />
        </mxCell>
        <mxCell id="4s7BZbVLVcyS78RvxXGr-71" value="&lt;font style=&quot;font-size: 22px;&quot;&gt;SERVER/PC&lt;/font&gt;" style="text;html=1;align=center;verticalAlign=middle;resizable=0;points=[];autosize=1;strokeColor=none;fillColor=none;" vertex="1" parent="1">
          <mxGeometry x="870" y="-210" width="150" height="40" as="geometry" />
        </mxCell>
      </root>
    </mxGraphModel>
  </diagram>
</mxfile>
